<svg xmlns="http://www.w3.org/2000/svg" viewBox="0 0 128 128" role="img" aria-label="Gutenberg publication mark">
  <rect width="128" height="128" rx="28" fill="#183343"/>
  <path d="M25 30c14-7 27-5 39 3v68c-12-8-25-10-39-3z" fill="#fbf5e9"/>
  <path d="M103 30c-14-7-27-5-39 3v68c12-8 25-10 39-3z" fill="#e7dfcf"/>
  <path d="M64 33v68" fill="none" stroke="#bf8430" stroke-width="4"/>
  <path d="M34 45c9-3 17-2 23 1M34 57c9-3 17-2 23 1M34 69c9-3 17-2 23 1M94 45c-9-3-17-2-23 1M94 57c-9-3-17-2-23 1M94 69c-9-3-17-2-23 1" fill="none" stroke="#62706b" stroke-linecap="round" stroke-width="3"/>
  <path d="M24 102c14-6 27-4 40 4 13-8 26-10 40-4" fill="none" stroke="#bf8430" stroke-linecap="round" stroke-width="4"/>
</svg>
